<?xml version="1.0" encoding="utf-8"?>
<!-- Generator: Adobe Illustrator 26.0.3, SVG Export Plug-In . SVG Version: 6.00 Build 0)  -->
<svg version="1.1" id="Camada_1" xmlns="http://www.w3.org/2000/svg" xmlns:xlink="http://www.w3.org/1999/xlink" x="0px" y="0px"
	 viewBox="0 0 63 63" style="enable-background:new 0 0 63 63;" xml:space="preserve">
<style type="text/css">
	.st0{fill:#18A9AE;}
	.st1{fill:#FFFFFF;}
</style>
<g id="Grupo_2430" transform="translate(-1085 -218)">
	<g id="Grupo_2428" transform="translate(1085 218)">
		<circle id="Elipse_17" class="st0" cx="31.5" cy="31.5" r="31.5"/>
	</g>
	<g id="noun-arrow-1787132" transform="translate(1123.391 235.712) rotate(90)">
		<path id="Caminho_5412" class="st1" d="M13.8,0.4c-0.2,0-0.4,0.1-0.6,0.2L0.6,12.1l0,0c-0.4,0.3-0.5,0.9-0.1,1.3
			c0.3,0.4,0.9,0.5,1.3,0.1c0,0,0,0,0,0L13.9,2.7L26,13.5c0.4,0.4,1,0.4,1.3,0c0.4-0.4,0.4-1,0-1.3c0,0,0,0,0,0L14.5,0.7
			C14.4,0.5,14.1,0.4,13.8,0.4L13.8,0.4z"/>
	</g>
</g>
</svg>
