<?xml version="1.0" encoding="utf-8"?>
<!-- Generator: Adobe Illustrator 28.3.0, SVG Export Plug-In . SVG Version: 6.00 Build 0)  -->
<svg version="1.1" id="Camada_1" xmlns="http://www.w3.org/2000/svg" xmlns:xlink="http://www.w3.org/1999/xlink" x="0px" y="0px"
	 viewBox="0 0 126.5 50.4" style="enable-background:new 0 0 126.5 50.4;" xml:space="preserve">
<style type="text/css">
	.st0{fill:#FFFFFF;}
</style>
<g>
	<path class="st0" d="M24.3,24.5H1.1V1.3h23.2V24.5z M5.3,20.3H20v-4.2H9.5V5.5H5.3V20.3z"/>
	<path class="st0" d="M49.6,24.5H26.4V1.3h23.2V24.5z M30.6,20.3h14.8V5.5H30.6V20.3z M34.8,16.1V9.7h6.3v6.3H34.8z"/>
	<path class="st0" d="M74.9,24.5H51.7V1.3h23.2V24.5z M60.1,16.1l4.2,4.2h6.3L65.4,15h5.3V5.5H55.9v14.8h4.2V16.1z M60.1,9.7h6.3
		v1.1h-6.3V9.7z"/>
	<path class="st0" d="M100.2,24.5H77V1.3h23.2V24.5z M85.4,16.1V15h10.5v-4.2H85.4V9.7h10.5V5.5H81.2v14.8h14.8v-4.2H85.4z"/>
	<path class="st0" d="M102.3,24.5V1.3h23.2v23.2H102.3z M110.7,9.7h1.1v10.5h4.2V9.7h1.1v10.5h4.2V5.5h-14.8v14.8h4.2V9.7z"/>
	<path class="st0" d="M1.1,50.4V27.2h23.2v23.2H1.1z M10.5,42v4.2h4.2V42H10.5z"/>
	<path class="st0" d="M26.4,50.4V27.2h23.2v23.2H26.4z M35.8,42v4.2h4.2V42H35.8z"/>
	<path class="st0" d="M74.9,50.4H51.7V27.2h23.2V50.4z M55.9,46.2h14.8V42H60.1V31.4h-4.2V46.2z"/>
	<path class="st0" d="M77,50.4V27.2h23.2v23.2H77z M85.4,35.7h1.1v10.5h4.2V35.7h1.1v10.5h4.2V31.4H81.2v14.8h4.2V35.7z"/>
	<path class="st0" d="M125.5,50.4h-23.2V27.2h23.2V50.4z M121.3,35.7v-4.2h-14.8v9.5H117V42h-10.5v4.2h14.8v-9.5h-10.5v-1.1H121.3z"
		/>
</g>
</svg>
