<svg xmlns="http://www.w3.org/2000/svg" width="14.807" height="25.558" viewBox="0 0 14.807 25.558">
  <g id="noun-mouse-click-1002185_1_" data-name="noun-mouse-click-1002185 (1)" transform="translate(-173.436 -54.434)">
    <path id="Caminho_5415" data-name="Caminho 5415" d="M181.916,58.687a6.32,6.32,0,0,0-6.326,6.258v8.789a6.327,6.327,0,0,0,12.652,0V64.946A6.32,6.32,0,0,0,181.916,58.687Zm0,20.45a5.328,5.328,0,0,1-5.3-5.4V64.946a5.3,5.3,0,1,1,10.6,0v8.789A5.327,5.327,0,0,1,181.916,79.137Zm.855-13.679a.526.526,0,0,1-.513.513h-.376a.526.526,0,0,1-.513-.513V63.714a.526.526,0,0,1,.513-.513h.376a.526.526,0,0,1,.513.513Zm-9.164-6.566a.359.359,0,0,0-.171.308.387.387,0,0,0,.376.41l2.394.137a.394.394,0,1,0,.034-.786l-2.394-.137a.5.5,0,0,0-.239.068Zm8.31-4.138a.341.341,0,0,0-.171.137l-1.334,2.018a.394.394,0,0,0,.65.445l1.334-2.018a.387.387,0,0,0-.1-.547.313.313,0,0,0-.376-.034Zm-5.3-.274a.4.4,0,0,0-.171.547l1.06,2.154a.405.405,0,0,0,.718-.376l-1.06-2.154A.4.4,0,0,0,176.616,54.481Z" transform="translate(0 0)" fill="#553178"/>
  </g>
</svg>
