<?xml version="1.0" encoding="utf-8"?>
<!-- Generator: Adobe Illustrator 26.5.0, SVG Export Plug-In . SVG Version: 6.00 Build 0)  -->
<svg version="1.1" id="Camada_1"
  xmlns="http://www.w3.org/2000/svg"
  xmlns:xlink="http://www.w3.org/1999/xlink" x="0px" y="0px" viewBox="0 0 79 79" style="enable-background:new 0 0 79 79;" xml:space="preserve">
  <style type="text/css">
	.st0{fill:#efe06e;}
	.st1{fill:none;}
	.st2{fill:none;stroke:#efe06e;stroke-width:3;}
  </style>
  <g id="Grupo_4400" transform="translate(0.248 0.343)">
    <g id="Grupo_4345" transform="translate(0 0)">
      <g id="Grupo_4322" transform="translate(23.89 17.577)">
        <path id="Imagem2" class="st0" d="M32.8,31c1.1-1.2,1.1-3-0.1-4.1c-0.5-0.5-1.3-0.8-2-0.8h-0.5c1.5-0.5,2.4-2.1,1.9-3.6
				c-0.4-1.4-1.9-2.3-3.4-2l-7.4,1.9c0.8-0.8,1.5-1.5,2-2l7.5-2.7c1-0.3,1.5-1.4,1.1-2.4c-0.3-1-1.4-1.5-2.4-1.1l0,0l-7.1,2.5
				l8.3-5.8c0.9-0.6,1.1-1.7,0.5-2.6c-0.6-0.9-1.7-1.1-2.6-0.5c0,0,0,0,0,0l0,0l-0.1,0l-7.2,5l6.1-7c0.6-0.8,0.5-2-0.3-2.6
				c-0.8-0.6-1.8-0.5-2.5,0.2l-6.5,7.5l4.4-8.3c0.4-0.9,0-2-0.9-2.5c-0.9-0.4-1.9-0.1-2.4,0.7l-5.4,10c-0.9,0.9-1.9,1.7-2.9,2.3
				v-0.1c0.4-2.8-0.1-5.7-1.5-8.2C9,4.1,7.9,3.9,7.1,4.5C6.3,5,6.1,6.1,6.7,6.9c0.7,1,0.4,3,0.1,5.2c-0.3,2.7-0.7,5.9,0.3,9L3.7,25
				H1.1C0.5,25,0,25.4,0,26l0,0v8c0,0.6,0.5,1.1,1.1,1.1l0,0h4.9c2.3,3,8.6,3.3,11,3.3h0.1l6.8,3.6c1.4,0.8,3.2,0.2,4-1.2
				c0.7-1.3,0.3-2.9-0.9-3.8l2.1,0.5c1.6,0.4,3.1-0.6,3.5-2.2c0.4-1.6-0.6-3.1-2.2-3.5l0,0h0.4C31.5,31.9,32.2,31.6,32.8,31z
				 M21.4,30c-0.6-0.1-1.1,0.4-1.2,1c-0.1,0.6,0.4,1.1,1,1.2l0,0l8.6,1.9c0.4,0.1,0.7,0.5,0.6,0.9c0,0.2-0.2,0.4-0.3,0.5
				c-0.2,0.1-0.4,0.1-0.6,0.1l-9.9-2.2c-0.6-0.1-1.1,0.2-1.3,0.8c-0.1,0.5,0.1,1,0.5,1.2l6.6,3.5c0.4,0.2,0.5,0.7,0.4,1
				c-0.2,0.4-0.6,0.5-1,0.4c0,0-0.1,0-0.1-0.1l-7.1-3.7c-0.2-0.1-0.3-0.1-0.5-0.1l0,0c-4.1,0.1-8.7-0.8-9.7-2.8
				C7.3,33.2,6.9,33,6.5,33H2.1v-5.9h3.6c0.4,0,0.8-0.2,0.9-0.6c1.5-2.3,3.5-4.3,5.9-5.7l0.2-0.1c2.1-1.4,3.8-2.7,4.2-4.3
				c0.1-0.4,0.4-0.6,0.8-0.5c0,0,0,0,0,0c0.2,0,0.3,0.1,0.4,0.3c0.1,0.1,0.1,0.3,0.1,0.5c-0.8,2.5-2.4,4.6-4.6,6l0,0.1l0,0
				c-0.5,0.3-0.6,1-0.3,1.5c0.1,0.2,0.4,0.4,0.6,0.4c1.3,0.3,2.6,0.6,3.9,0.6c0.1,0,0.2,0,0.3,0l11-2.8c0.2-0.1,0.4,0,0.6,0.1
				c0.2,0.1,0.3,0.3,0.4,0.5c0.1,0.4-0.1,0.8-0.5,1l-9.1,2.3c-0.6,0.1-0.9,0.7-0.8,1.3c0.1,0.5,0.5,0.8,1,0.8h0l9.9-0.2l0,0
				c0.4,0,0.7,0.4,0.7,0.9c0,0.4-0.3,0.7-0.7,0.7L21.4,30z"/>
      </g>
      <g id="AJUDA" transform="translate(-0.248 -0.343)">
        <g id="BOX_CLICK">
          <g id="Elipse_21" transform="translate(79 0.001) rotate(90)">
            <circle class="st1" cx="39.5" cy="39.5" r="39.5"/>
            <circle class="st2" cx="39.5" cy="39.5" r="38"/>
          </g>
        </g>
      </g>
    </g>
  </g>
</svg>
