<svg xmlns="http://www.w3.org/2000/svg" width="112.352" height="238.6" viewBox="0 0 112.352 238.6">
  <g id="Grupo_783" data-name="Grupo 783" transform="translate(-1154 -540)">
    <g id="Grupo_714" data-name="Grupo 714" transform="translate(-388 290)">
      <g id="Elipse_8" data-name="Elipse 8" transform="translate(1622 330) rotate(180)" fill="#f4cd6d" stroke="#4a4a4a" stroke-width="3">
        <circle cx="40" cy="40" r="40" stroke="none"/>
        <circle cx="40" cy="40" r="38.5" fill="none"/>
      </g>
      <g id="Grupo_689" data-name="Grupo 689" transform="translate(1565.571 272.857)">
        <line id="Linha_19" data-name="Linha 19" x2="34.286" y2="34.286" transform="translate(0 0)" fill="none" stroke="#4a4a4a" stroke-width="3"/>
        <line id="Linha_20" data-name="Linha 20" y1="34.286" x2="34.286" transform="translate(0 0)" fill="none" stroke="#4a4a4a" stroke-width="3"/>
      </g>
    </g>
    <path id="Caminho_4099" data-name="Caminho 4099" d="M1487.519,174.527l-112.233-.184.156-84.816,112.2,20.14Z" transform="translate(-221.287 604.073)" fill="#f2f2f2"/>
    <g id="Grupo_109" data-name="Grupo 109" transform="translate(-2340.874 1427.628)">
      <path id="Caminho_3287" data-name="Caminho 3287" d="M3514-674.55a4.755,4.755,0,0,1,2-.453,4.1,4.1,0,0,1,2,.5,22.236,22.236,0,0,1,5.606,5.526l6.317,9.213a1.9,1.9,0,0,0,2.634.5,1.894,1.894,0,0,0,.826-1.566v-58.182c0-3.513,2.528-6.343,5.572-6.171,2.869.151,4.869,2.694,4.869,6.171v24.372a2,2,0,0,0-.045.4v18.96a1.9,1.9,0,0,0,1.95,1.842,1.9,1.9,0,0,0,1.842-1.842v-14.731a6.04,6.04,0,0,1,5.344-3.874,6.238,6.238,0,0,1,5.666,4.659v16.472a1.9,1.9,0,0,0,1.9,1.9,1.9,1.9,0,0,0,1.9-1.9v-16.783a5.934,5.934,0,0,1,5.1-3.38,6.453,6.453,0,0,1,5.909,5.567v17.678a1.9,1.9,0,0,0,1.9,1.9,1.9,1.9,0,0,0,1.9-1.9v-17.33a5.589,5.589,0,0,1,4.189-2.042c3.376,0,6.119,3.336,6.119,7.437v32.23c0,7.832-3.775,20.912-12.137,25.922H3546.3c-7.2-1.939-14.386-12.642-14.484-12.789-.275-.4-13.139-19.272-19.874-29.158a7.009,7.009,0,0,1-1.282-4.033,5.914,5.914,0,0,1,3.342-5.115Zm14.685,40.442h0c.331.5,8.217,12.254,16.926,14.39a1.838,1.838,0,0,0,.453.054h29.8a1.907,1.907,0,0,0,.921-.239c10.562-5.881,14.5-21.2,14.5-29.474v-32.237c0-6.192-4.446-11.229-9.91-11.229a9.055,9.055,0,0,0-5.3,1.741,9.714,9.714,0,0,0-8.584-5.615,9.3,9.3,0,0,0-6.9,3.156,9.559,9.559,0,0,0-7.663-4.124,9.075,9.075,0,0,0-5.3,1.755v-23.092c0-5.5-3.555-9.69-8.457-9.957-5.243-.288-9.572,4.286-9.572,9.957v52.064l-2.83-4.127a25.783,25.783,0,0,0-6.9-6.724,8.345,8.345,0,0,0-7.445-.192,9.682,9.682,0,0,0-5.547,8.356,10.827,10.827,0,0,0,1.911,6.334c17.2,25.241,19.553,28.694,19.9,29.2Z" transform="translate(0 -45.067)" fill="#4a4a4a" fill-rule="evenodd"/>
      <path id="Caminho_3288" data-name="Caminho 3288" d="M3538.7-728.99c.154,0,.311,0,.468.012,4.9.267,8.455,4.455,8.455,9.959v23.092a9.065,9.065,0,0,1,5.3-1.755,9.557,9.557,0,0,1,7.662,4.124,9.3,9.3,0,0,1,6.9-3.157,9.71,9.71,0,0,1,8.583,5.614,9.061,9.061,0,0,1,5.306-1.741c5.463,0,9.909,5.037,9.909,11.229v32.237c0,8.275-3.935,23.593-14.5,29.474a1.9,1.9,0,0,1-.921.239H3546.07a1.887,1.887,0,0,1-.45-.054c-8.708-2.136-16.594-13.891-16.924-14.392h0c-.347-.5-2.7-3.957-19.9-29.2a10.842,10.842,0,0,1-1.91-6.334,9.681,9.681,0,0,1,5.547-8.356,8.638,8.638,0,0,1,3.592-.781,7.86,7.86,0,0,1,3.852.972,25.816,25.816,0,0,1,6.9,6.722l2.828,4.129v-52.065c0-5.5,4.072-9.971,9.1-9.971Zm6.983,55.6a1.9,1.9,0,0,1-1.9-1.9v-18.96a1.95,1.95,0,0,1,.045-.4v-24.373c0-3.478-2-6.015-4.868-6.171-.091-.006-.181-.007-.272-.007-2.92,0-5.3,2.771-5.3,6.178v58.183a1.9,1.9,0,0,1-1.335,1.811,1.941,1.941,0,0,1-.559.084,1.9,1.9,0,0,1-1.566-.825l-6.317-9.214a22.211,22.211,0,0,0-5.605-5.526,4.108,4.108,0,0,0-2-.5,4.749,4.749,0,0,0-2,.453,5.909,5.909,0,0,0-3.342,5.114,7.016,7.016,0,0,0,1.282,4.032c6.736,9.888,19.6,28.763,19.874,29.159.1.147,7.284,10.851,14.483,12.79h29.046c8.365-5.01,12.135-18.09,12.135-25.922v-32.237c0-4.1-2.744-7.436-6.117-7.436a5.59,5.59,0,0,0-4.189,2.042v17.33a1.9,1.9,0,0,1-1.9,1.9,1.894,1.894,0,0,1-1.895-1.9v-17.677c-.705-3.282-3.125-5.567-5.909-5.567a5.932,5.932,0,0,0-5.1,3.38v16.784a1.894,1.894,0,0,1-1.9,1.9,1.9,1.9,0,0,1-1.9-1.9v-16.472c-.948-2.832-3.171-4.661-5.664-4.661a6.034,6.034,0,0,0-5.345,3.874v14.731a1.9,1.9,0,0,1-1.9,1.9Z" transform="translate(0 -45.068)" fill="#4a4a4a" fill-rule="evenodd"/>
      <path id="Caminho_3289" data-name="Caminho 3289" d="M3621.794-778.082a1.909,1.909,0,0,0,1.908-1.905v-8.337a1.907,1.907,0,0,0-1.91-1.905,1.907,1.907,0,0,0-1.908,1.905v8.337a1.907,1.907,0,0,0,1.908,1.905Z" transform="translate(-83.166)" fill="#4a4a4a" fill-rule="evenodd"/>
      <path id="Caminho_3290" data-name="Caminho 3290" d="M3621.792-778.082a1.907,1.907,0,0,1-1.908-1.905v-8.338a1.907,1.907,0,0,1,1.908-1.905,1.908,1.908,0,0,1,1.909,1.905v8.338a1.908,1.908,0,0,1-1.909,1.905Z" transform="translate(-83.166)" fill="#4a4a4a" fill-rule="evenodd"/>
      <path id="Caminho_3291" data-name="Caminho 3291" d="M3577.141-762.015a1.912,1.912,0,0,0,2.69,0,1.879,1.879,0,0,0,0-2.67l-5.883-5.84a1.913,1.913,0,0,0-2.69.078,1.88,1.88,0,0,0,0,2.593l5.883,5.84Z" transform="translate(-46.999 -14.121)" fill="#4a4a4a" fill-rule="evenodd"/>
      <path id="Caminho_3292" data-name="Caminho 3292" d="M3578.5-761.588a1.882,1.882,0,0,1-1.34-.56l-5.861-5.9a1.918,1.918,0,0,1,0-2.7,1.876,1.876,0,0,1,1.34-.559,1.878,1.878,0,0,1,1.338.558l5.861,5.9a1.919,1.919,0,0,1,0,2.7,1.881,1.881,0,0,1-1.339.56Z" transform="translate(-47.001 -13.927)" fill="#4a4a4a" fill-rule="evenodd"/>
      <path id="Caminho_3293" data-name="Caminho 3293" d="M3550.032-718.143h8.289a1.886,1.886,0,0,0,1.9-1.874,1.886,1.886,0,0,0-1.9-1.875h-8.289a1.884,1.884,0,0,0-1.894,1.875,1.884,1.884,0,0,0,1.894,1.874Z" transform="translate(-30.367 -50.291)" fill="#4a4a4a" fill-rule="evenodd"/>
      <path id="Caminho_3294" data-name="Caminho 3294" d="M3558.322-718.143h-8.289a1.885,1.885,0,0,1-1.9-1.875,1.884,1.884,0,0,1,1.9-1.873h8.289a1.884,1.884,0,0,1,1.894,1.873,1.884,1.884,0,0,1-1.894,1.875Z" transform="translate(-30.367 -50.291)" fill="#4a4a4a" fill-rule="evenodd"/>
      <path id="Caminho_3295" data-name="Caminho 3295" d="M3660.364-720.017a1.884,1.884,0,0,0,1.895,1.873h8.288a1.886,1.886,0,0,0,1.9-1.873,1.886,1.886,0,0,0-1.9-1.875h-8.288a1.884,1.884,0,0,0-1.895,1.873Z" transform="translate(-112.956 -50.291)" fill="#4a4a4a" fill-rule="evenodd"/>
      <path id="Caminho_3296" data-name="Caminho 3296" d="M3662.258-721.892h8.288a1.885,1.885,0,0,1,1.9,1.873,1.886,1.886,0,0,1-1.9,1.875h-8.288a1.885,1.885,0,0,1-1.895-1.875,1.884,1.884,0,0,1,1.895-1.873Z" transform="translate(-112.956 -50.291)" fill="#4a4a4a" fill-rule="evenodd"/>
      <path id="Caminho_3297" data-name="Caminho 3297" d="M3648.858-761.587a1.9,1.9,0,0,0,1.344-.557l5.878-5.877a1.9,1.9,0,0,0,.077-2.688,1.9,1.9,0,0,0-2.687-.077c-.027.026-.053.051-.079.079l-5.878,5.877a1.9,1.9,0,0,0,0,2.688,1.9,1.9,0,0,0,1.341.556Z" transform="translate(-103.091 -13.927)" fill="#4a4a4a" fill-rule="evenodd"/>
      <path id="Caminho_3298" data-name="Caminho 3298" d="M3648.855-761.588a1.881,1.881,0,0,1-1.339-.56,1.916,1.916,0,0,1,0-2.7l5.859-5.9a1.881,1.881,0,0,1,1.34-.559,1.881,1.881,0,0,1,1.34.558,1.919,1.919,0,0,1,0,2.7l-5.859,5.9a1.887,1.887,0,0,1-1.34.56Z" transform="translate(-103.092 -13.927)" fill="#4a4a4a" fill-rule="evenodd"/>
    </g>
  </g>
</svg>
