<?xml version="1.0" encoding="utf-8"?>
<!-- Generator: Adobe Illustrator 25.4.1, SVG Export Plug-In . SVG Version: 6.00 Build 0)  -->
<svg version="1.1" id="Camada_1" xmlns="http://www.w3.org/2000/svg" xmlns:xlink="http://www.w3.org/1999/xlink" x="0px" y="0px"
	 viewBox="0 0 130 130" style="enable-background:new 0 0 130 130;" xml:space="preserve">
<style type="text/css">
	.st0{clip-path:url(#SVGID_00000081623245703920312690000015226123261872893850_);}
	.st1{fill:#FFFFFF;}
</style>
<g id="Grupo_25" transform="translate(1403 -3893)">
	<circle id="Elipse_1" cx="-1338" cy="3958" r="65"/>
	<g id="Grupo_20" transform="translate(-1336.35 3927.671)">
		<g>
			<defs>
				<rect id="SVGID_1_" x="-28" y="-14.5" width="52.1" height="89.2"/>
			</defs>
			<clipPath id="SVGID_00000171701945023295021650000006926389449038013881_">
				<use xlink:href="#SVGID_1_"  style="overflow:visible;"/>
			</clipPath>
			
				<g id="Grupo_19" transform="translate(0 0)" style="clip-path:url(#SVGID_00000171701945023295021650000006926389449038013881_);">
				<path id="Caminho_1" class="st1" d="M-1.9,55.4c-5.3,0-9.6,4.3-9.6,9.6c0,5.3,4.3,9.6,9.6,9.6s9.6-4.3,9.6-9.6l0,0
					C7.7,59.7,3.4,55.4-1.9,55.4 M-1.9,71.8c-3.8,0-6.8-3.1-6.8-6.8c0-3.8,3.1-6.8,6.8-6.8s6.8,3.1,6.8,6.8l0,0
					C4.9,68.8,1.9,71.8-1.9,71.8"/>
				<path id="Caminho_2" class="st1" d="M24.1,11C23.9-3.1,12.5-14.5-1.7-14.5l0,0h-0.3c-15.3,0-26,11-26,26.6
					c0,1.5,1.2,2.8,2.8,2.8h8.2c1.5,0,2.8-1.2,2.8-2.8c0-8,4.6-12.8,12.3-12.8l0.3,0h0.3c6.6,0.2,11.8,5.6,11.7,12.2
					c0,6.8-4.7,11-12.3,11h-4.1c-1.5,0-2.8,1.2-2.8,2.8v21c0,1.5,1.2,2.8,2.8,2.8h8.3C3.8,49,5,47.7,5,46.2V35.4
					c11.5-2.6,19.1-12,19.1-23.9C24.1,11.3,24.1,11.2,24.1,11 M21.3,11.5c0,11.6-7.7,20-19.1,21.6v13.1h-8.3v-21h4.1
					c9.1,0,15.1-5.4,15.1-13.7c0.2-8.1-6.3-14.9-14.4-15c0,0,0,0,0,0c-0.1,0-0.2,0-0.3,0c-0.1,0-0.2,0-0.3,0
					C-11.3-3.5-17,2.7-17,12.1h-8.2c0-13.9,9.3-23.8,23.3-23.8h0.3c12.6,0,22.9,10.2,23,22.8C21.3,11.2,21.3,11.3,21.3,11.5"/>
			</g>
		</g>
	</g>
</g>
</svg>
