<?xml version="1.0" encoding="utf-8"?>
<!-- Generator: Adobe Illustrator 25.4.1, SVG Export Plug-In . SVG Version: 6.00 Build 0)  -->
<svg version="1.1" id="Camada_1" xmlns="http://www.w3.org/2000/svg" xmlns:xlink="http://www.w3.org/1999/xlink" x="0px" y="0px"
	 viewBox="0 0 130 130" style="enable-background:new 0 0 130 130;" xml:space="preserve">
<style type="text/css">
	.st0{clip-path:url(#SVGID_00000119827161318419098430000003758294209973721997_);}
	.st1{fill:#FFFFFF;}
</style>
<g id="Grupo_31" transform="translate(-1003 -356)">
	<circle id="Elipse_3" cx="1068" cy="421" r="65"/>
	<g id="Grupo_28" transform="translate(1057.597 389.666)">
		<g>
			<defs>
				<rect id="SVGID_1_" x="-22.9" y="-14.1" width="72" height="85.6"/>
			</defs>
			<clipPath id="SVGID_00000000216353706841206640000001492600945690025372_">
				<use xlink:href="#SVGID_1_"  style="overflow:visible;"/>
			</clipPath>
			
				<g id="Grupo_28-2" transform="translate(0 0)" style="clip-path:url(#SVGID_00000000216353706841206640000001492600945690025372_);">
				<path id="Caminho_10" class="st1" d="M40.7,19.5V19C41.3,1.4,27.6-13.4,10-14.1H8.9c-17.1,0-31.2,13.6-31.8,30.8V19
					c0,10,4.6,19.5,12.5,25.7v26.8h33.5V58.7h5.2c6.9,0,12.5-5.6,12.5-12.5v-6.6h4.7c2.8-0.3,5.2-3.5,2.6-7.4L40.7,19.5z M46.8,36.5
					c-0.3,0.6-0.8,1-1.5,1.2h-6.7v8.7c0,5.7-4.6,10.4-10.4,10.4h-7.3v12.7H-8.3V43.6l-0.8-0.6c-7.4-5.8-11.7-14.6-11.7-24v-2.1
					C-20.3,0.8-7.2-12,8.9-12h1.1c16.4,0.6,29.2,14.4,28.6,30.8c0,0,0,0,0,0V20l0.3,0.5l7.3,12.7C47,34.1,47.2,35.4,46.8,36.5"/>
				<path id="Caminho_11" class="st1" d="M7.6,38.9L7.6,38.9c1.8,0,3.3-1.4,3.4-3.2H4.2C4.3,37.5,5.8,38.9,7.6,38.9"/>
				<path id="Caminho_12" class="st1" d="M7.6,0.1C0.2,0.1-5.9,6.1-6,13.6V14c0,1.6,0.3,3.2,1,4.7c0.5,1.4,1.3,2.7,2.3,3.8
					c1.3,1.6,2.3,3.3,3.2,5.2c0.2,0.3,0.6,0.5,1,0.5h12.3c0.4,0,0.7-0.2,1-0.5c0.9-1.8,1.9-3.6,3.2-5.2c1-1.1,1.8-2.4,2.3-3.8
					c0.5-1.5,0.9-3.1,1-4.7v-0.4C21.1,6.1,15,0.1,7.6,0.1 M19,13.9c0,1.4-0.3,2.7-0.8,3.9c-0.5,1.2-1.1,2.3-2,3.2
					c-1.2,1.6-2.3,3.2-3.2,5H2.1c-0.9-1.8-1.9-3.4-3.2-5c-0.8-1-1.5-2-2-3.2c-0.5-1.3-0.7-2.6-0.7-3.9v-0.4C-3.9,7.1,1.3,2,7.6,2
					S19,7.1,19,13.5L19,13.9z"/>
				<path id="Caminho_13" class="st1" d="M12.8,31H2.6c-0.6,0-1,0.5-1,1.1c0,0.6,0.5,1,1,1h10.2c0.6,0,1-0.4,1.1-0.9
					c0,0,0-0.1,0-0.1C13.8,31.4,13.4,31,12.8,31"/>
			</g>
		</g>
	</g>
</g>
</svg>
