<?xml version="1.0" encoding="utf-8"?>
<!-- Generator: Adobe Illustrator 25.4.1, SVG Export Plug-In . SVG Version: 6.00 Build 0)  -->
<svg version="1.1" id="Camada_1" xmlns="http://www.w3.org/2000/svg" xmlns:xlink="http://www.w3.org/1999/xlink" x="0px" y="0px"
	 viewBox="0 0 130 130" style="enable-background:new 0 0 130 130;" xml:space="preserve">
<style type="text/css">
	.st0{clip-path:url(#SVGID_00000078037099954459876270000010543511243997079701_);}
	.st1{fill:#FFFFFF;}
</style>
<g id="Grupo_30" transform="translate(-683 -356)">
	<g id="Grupo_26" transform="translate(1618 -3537)">
		<circle id="Elipse_2" cx="-870" cy="3958" r="65"/>
		<g id="Grupo_22" transform="translate(-878.977 3921)">
			<g>
				<defs>
					<rect id="SVGID_1_" x="-23.5" y="-11.8" width="64.4" height="88.3"/>
				</defs>
				<clipPath id="SVGID_00000049182493532465699360000010143895589612286367_">
					<use xlink:href="#SVGID_1_"  style="overflow:visible;"/>
				</clipPath>
				
					<g id="Grupo_21" transform="translate(0 0)" style="clip-path:url(#SVGID_00000049182493532465699360000010143895589612286367_);">
					<path id="Caminho_3" class="st1" d="M40.7,74.8l-4.7-7.6c-0.2-0.3-0.6-0.5-1-0.5h-1.8c9.4-13.9,5.8-32.8-8.1-42.2
						c-2.5-1.7-5.1-3-8-3.8c-0.3-1.9-1.4-3.6-2.9-4.7l6.6-11c0.3-0.5,0.1-1.2-0.4-1.6l-1.8-1.1l1.4-2.3l0.7,0.4
						c0.3,0.2,0.6,0.2,0.9,0.1c0.3-0.1,0.5-0.3,0.7-0.5l2.7-4.6c0.3-0.5,0.1-1.2-0.4-1.6l-9-5.4c-0.5-0.3-1.2-0.2-1.6,0.4
						c0,0,0,0,0,0l-2.7,4.5c-0.3,0.5-0.1,1.2,0.4,1.6l0.7,0.4l-1.4,2.3L9.3-3.4C8.7-3.7,8-3.6,7.7-3c0,0,0,0,0,0l-20.2,33.8l-1.6-1
						c-0.5-0.3-1.2-0.2-1.6,0.4c-0.3,0.5-0.2,1.2,0.4,1.6c0,0,0,0,0,0l1.6,1l-1.8,3c-0.3,0.5-0.1,1.2,0.4,1.6l0.7,0.4
						c-1.4,2.7-0.5,6.1,2.1,7.7c2.6,1.6,6.1,0.9,7.8-1.7l0.7,0.4c0.5,0.3,1.2,0.2,1.6-0.4c0,0,0,0,0,0l1.8-3l1.9,1.1
						C1.6,42,1.8,42,2,42c0.6,0,1.1-0.5,1.1-1.1c0-0.4-0.2-0.8-0.6-1l-1.9-1.2l6-10c2.2,1.1,4.9,1,7.1-0.3
						c11.7,3.1,18.7,15,15.6,26.7c-1.2,4.5-3.8,8.5-7.4,11.5h-38.5c-0.4,0-0.8,0.2-1,0.5l-4.7,7.6c-0.3,0.5-0.2,1.2,0.4,1.6
						c0.2,0.1,0.4,0.2,0.6,0.2h61c0.6,0,1.1-0.5,1.1-1.1C40.9,75.2,40.9,75,40.7,74.8 M15.5-9l7,4.2L21-2.2L14.7-6l0,0h0l-0.7-0.4
						L15.5-9z M14.5-3.5l3.7,2.2l-1.4,2.3l-3.7-2.2L14.5-3.5z M9.1-0.9l1.8,1.1l0,0l0,0l7.5,4.5l-6,10.1c-0.4-0.2-0.9-0.3-1.3-0.3
						c-2-0.3-4,0.2-5.6,1.4c-3.3,2.5-4,7.2-1.6,10.5c0.3,0.4,0.6,0.7,1,1.1l-6,10.1l-7.5-4.5l-1.8-1.1L9.1-0.9z M-8.4,43.9
						c-0.9,0.2-1.9,0.1-2.7-0.4c-1.5-1-2.1-2.9-1.3-4.6l6,3.6C-6.9,43.2-7.6,43.7-8.4,43.9 M-3.6,41.5l-0.6-0.3c0,0-0.1-0.1-0.1-0.1
						c0,0-0.1,0-0.1,0l-8.6-5.1l1.2-2l9.3,5.6L-3.6,41.5z M9.2,27.2c-1.4-0.2-2.6-0.9-3.4-2.1c-1.7-2.3-1.3-5.6,1.1-7.4
						c2.3-1.7,5.6-1.3,7.3,1c0,0,0,0,0,0c0.8,1.1,1.2,2.5,1,3.9c-0.2,1.4-0.9,2.6-2,3.4l0,0C11.9,27,10.5,27.4,9.2,27.2 M31.7,55.3
						c3-12.2-4-24.7-15.9-28.7c0.8-1,1.4-2.3,1.6-3.6c0,0,0,0,0,0C32,28.2,39.8,44.2,34.7,58.9c-1,2.8-2.4,5.5-4.2,7.8h-5.2
						C28.4,63.6,30.6,59.6,31.7,55.3 M-19.2,74.3l3.3-5.3h38.2l0,0l0,0h12.1l3.3,5.3H-19.2z"/>
					<path id="Caminho_4" class="st1" d="M5.4,65c0.6,0,1.1-0.5,1.1-1.1v-5.3c0-0.6-0.5-1.1-1.1-1.1h-27.8c-0.6,0-1.1,0.5-1.1,1.1
						v5.3c0,0.6,0.5,1.1,1.1,1.1L5.4,65z M-21.2,59.6H4.3v3h-25.5L-21.2,59.6z"/>
					<path id="Caminho_5" class="st1" d="M-16.2,55.9h15.5c0.6,0,1.2-0.5,1.2-1.1c0-0.6-0.5-1.2-1.1-1.2c0,0,0,0-0.1,0h-15.5
						c-0.6,0-1.2,0.5-1.2,1.1C-17.4,55.3-16.9,55.9-16.2,55.9C-16.2,55.9-16.2,55.9-16.2,55.9"/>
				</g>
			</g>
		</g>
	</g>
</g>
</svg>
