<svg version="1.1" id="Layer_1" xmlns="http://www.w3.org/2000/svg" xmlns:xlink="http://www.w3.org/1999/xlink" x="0px" y="0px"
                viewBox="0 0 73.84 73.84" style="enable-background:new 0 0 73.84 73.84;" xml:space="preserve">
            <style type="text/css">
                .st0{fill:#E04D9C;}
                .st1{fill:#FFFFFF;}
                .st2{fill:none;}
            </style>
            <rect class="st0" width="73.84" height="73.84"/>
            <path class="st1" d="M35.83,38.55c-2.6-0.13-5.08-0.44-7.52-0.94c-4.98-1.02-9.75-2.67-14.35-4.82c-0.44-0.2-0.76-0.21-1.2,0.03
                c-1.86,1-4.18,0.37-5.38-1.42c-1.14-1.69-0.82-4.06,0.72-5.42c1.56-1.38,3.96-1.39,5.52,0c1.4,1.24,1.75,2.78,1.19,4.53
                c-0.11,0.35-0.1,0.5,0.26,0.67c4.91,2.21,9.98,3.9,15.29,4.85c6.55,1.17,12.98,0.55,19.35-1.19c3.73-1.02,7.35-2.35,10.87-3.93
                c0.3-0.13,0.48-0.21,0.34-0.64c-0.53-1.65,0.03-3.4,1.38-4.48c1.32-1.06,3.2-1.2,4.69-0.36c1.51,0.86,2.29,2.5,2.04,4.3
                c-0.41,2.9-3.73,4.44-6.28,2.88c-0.39-0.24-0.66-0.25-1.06-0.06c-5.25,2.42-10.69,4.25-16.38,5.29c-2,0.36-4.02,0.6-6.16,0.7
                c0.57,0.86,1.09,1.64,1.61,2.42c3.34,5,6.69,9.99,10.03,14.99c0.26,0.39,0.47,0.52,0.98,0.41c1.86-0.42,3.7,0.47,4.56,2.11
                c0.86,1.64,0.54,3.65-0.77,4.92c-1.35,1.3-3.43,1.58-5,0.66c-1.67-0.97-2.47-2.83-2-4.69c0.11-0.45,0.27-0.92,0.59-1.24
                c0.43-0.44,0.26-0.75-0.02-1.18c-3.76-5.58-7.5-11.17-11.24-16.76c-0.11-0.17-0.24-0.33-0.39-0.56c-1.4,2.13-2.77,4.21-4.14,6.29
                c-2.45,3.73-4.9,7.46-7.37,11.17c-0.23,0.34-0.24,0.54,0.02,0.89c1.21,1.63,1.06,3.86-0.3,5.29c-1.4,1.48-3.62,1.76-5.33,0.68
                c-1.71-1.08-2.39-3.22-1.62-5.11c0.74-1.83,2.68-2.87,4.69-2.48c0.37,0.07,0.64,0.13,0.91-0.29c3.73-5.71,7.49-11.4,11.24-17.09
                C35.66,38.86,35.71,38.76,35.83,38.55z M54.88,60.42c0.01-1.21-1.02-2.26-2.24-2.27c-1.22-0.01-2.27,1.02-2.28,2.23
                c-0.01,1.22,1.01,2.25,2.24,2.26C53.83,62.65,54.87,61.64,54.88,60.42z M22.64,62.65c1.24,0,2.26-1.02,2.25-2.24
                c0-1.21-1.04-2.23-2.27-2.24c-1.2-0.01-2.27,1.06-2.26,2.25C20.38,61.64,21.41,62.65,22.64,62.65z M67.15,29.06
                c0.01-1.23-1.01-2.26-2.23-2.27c-1.22-0.01-2.26,1.02-2.27,2.24c-0.01,1.22,1.02,2.25,2.24,2.26C66.13,31.3,67.15,30.3,67.15,29.06z
                    M13.13,29.13c0.01-1.22-1-2.25-2.24-2.26c-1.25-0.01-2.26,0.98-2.27,2.21c-0.01,1.24,1,2.27,2.22,2.27
                C12.08,31.35,13.11,30.34,13.13,29.13z"/>
            <path class="st1" d="M37.84,8.08c11.12,0.3,19.61,5.17,25.34,14.76c0.25,0.42,0.22,0.62-0.28,0.69c-0.02,0-0.04,0.02-0.07,0.02
                c-0.43,0.11-0.85,0.64-1.21,0.46c-0.35-0.18-0.49-0.75-0.73-1.14c-4.05-6.4-9.75-10.56-17.13-12.25
                C32.2,7.96,20.45,13.14,14.38,23.45c-0.25,0.43-0.46,0.59-0.89,0.29c-0.11-0.08-0.25-0.12-0.38-0.16c-0.91-0.33-0.92-0.34-0.39-1.21
                c4.67-7.69,11.45-12.35,20.28-14c0.77-0.14,1.56-0.23,2.34-0.28C36.17,8.04,37,8.08,37.84,8.08z"/>
            <path class="st1" d="M29.51,23.52c-0.01-4.44,3.62-8.08,8.06-8.09c4.49-0.01,8.17,3.61,8.19,8.05c0.01,4.47-3.63,8.12-8.11,8.12
                C33.13,31.59,29.52,28.01,29.51,23.52z M31.45,23.51c0,3.35,2.78,6.14,6.14,6.16c3.41,0.02,6.2-2.75,6.2-6.16
                c0.01-3.4-2.79-6.17-6.2-6.15C34.21,17.38,31.45,20.15,31.45,23.51z"/>
            <path class="st1" d="M64.82,37.1c0-0.58,0-1.16,0-1.73c0-0.17-0.08-0.41,0.21-0.42c0.49-0.01,0.96-0.12,1.43-0.23
                c0.41-0.1,0.3,0.27,0.31,0.46c0.11,1.59,0.09,3.19-0.09,4.78c-0.71,6.23-3.16,11.68-7.35,16.35c-0.08,0.09-0.15,0.17-0.23,0.26
                c-1.14,1.27-1.24,1.25-2.18-0.18c-0.23-0.36,0.06-0.45,0.21-0.61c1.64-1.68,3.05-3.53,4.21-5.57C63.66,46.14,64.82,41.77,64.82,37.1
                z"/>
            <path class="st1" d="M8.83,37.13c0-0.72,0-1.43,0-2.15c0-0.31,0.1-0.38,0.42-0.3c1.49,0.34,1.49,0.33,1.48,1.86
                c-0.04,7.38,2.54,13.72,7.58,19.08c0.3,0.32,0.38,0.53,0,0.8c-0.07,0.05-0.13,0.13-0.19,0.2c-0.75,0.89-0.75,0.89-1.58-0.01
                c-4.54-4.9-7.1-10.69-7.7-17.34c-0.06-0.71-0.01-1.43-0.01-2.15C8.85,37.13,8.84,37.13,8.83,37.13z"/>
            <path class="st1" d="M37.06,65.86c-2.82-0.07-6.02-0.61-9.12-1.71c-0.5-0.18-0.54-0.34-0.25-0.75c0.26-0.37,0.36-1.01,0.68-1.13
                c0.34-0.13,0.85,0.23,1.29,0.37c5.63,1.72,11.25,1.69,16.84-0.19c0.44-0.15,0.68-0.13,0.79,0.37c0.04,0.2,0.15,0.4,0.29,0.55
                c0.54,0.6,0.21,0.77-0.38,0.97C44.43,65.29,40.92,65.86,37.06,65.86z"/>
            <path class="st2" d="M54.88,60.42c-0.01,1.22-1.04,2.23-2.28,2.22c-1.23-0.01-2.26-1.04-2.24-2.26c0.01-1.21,1.06-2.24,2.28-2.23
                C53.85,58.16,54.89,59.21,54.88,60.42z"/>
            <path class="st2" d="M22.64,62.65c-1.23,0-2.26-1.01-2.27-2.23c-0.01-1.2,1.06-2.26,2.26-2.25c1.23,0.01,2.27,1.03,2.27,2.24
                C24.89,61.63,23.87,62.64,22.64,62.65z"/>
            <path class="st2" d="M67.15,29.06c-0.01,1.24-1.02,2.24-2.26,2.23c-1.23-0.01-2.25-1.04-2.24-2.26c0.01-1.22,1.05-2.25,2.27-2.24
                C66.14,26.8,67.16,27.83,67.15,29.06z"/>
            <path class="st2" d="M13.13,29.13c-0.01,1.21-1.05,2.22-2.28,2.23c-1.22,0.01-2.23-1.03-2.22-2.27c0.01-1.24,1.02-2.22,2.27-2.21
                C12.13,26.88,13.14,27.91,13.13,29.13z"/>
            <path class="st2" d="M31.45,23.51c0-3.37,2.77-6.14,6.14-6.15c3.41-0.02,6.21,2.75,6.2,6.15c-0.01,3.4-2.79,6.17-6.2,6.16
                C34.23,29.66,31.44,26.87,31.45,23.51z"/>
            </svg>