<svg xmlns="http://www.w3.org/2000/svg" width="149.693" height="101.289" viewBox="0 0 149.693 101.289">
  <g id="Grupo_2470" data-name="Grupo 2470" transform="translate(7832.301 3006.461) rotate(180)" opacity="0.154">
    <path id="Caminho_5447" data-name="Caminho 5447" d="M7736.376,2905.172h-44.268a9.5,9.5,0,0,0-9.5,9.5v44.268a9.5,9.5,0,0,0,9.5,9.5h22.134v35.288a2.727,2.727,0,0,0,4.936,1.6l23.458-32.409a17.063,17.063,0,0,0,3.241-10v-48.242A9.5,9.5,0,0,0,7736.376,2905.172Z" transform="translate(0 0)" fill="#8a8a8a"/>
    <path id="Caminho_5448" data-name="Caminho 5448" d="M7927.75,2905.172h-44.268a9.5,9.5,0,0,0-9.5,9.5v44.268a9.5,9.5,0,0,0,9.5,9.5h22.134v35.288a2.727,2.727,0,0,0,4.936,1.6l23.458-32.409a17.066,17.066,0,0,0,3.24-10v-48.242A9.5,9.5,0,0,0,7927.75,2905.172Z" transform="translate(-104.949 0)" fill="#8a8a8a"/>
  </g>
</svg>
