<svg xmlns="http://www.w3.org/2000/svg" width="341.242" height="135.838" viewBox="0 0 341.242 135.838">
  <g id="Grupo_1002" data-name="Grupo 1002" transform="translate(-169.649 -197.135)">
    <g id="Grupo_999" data-name="Grupo 999" transform="translate(170.469 284.87)">
      <path id="União_15" data-name="União 15" d="M297.132,44.965a8.934,8.934,0,0,1-2.924-6.97,10.088,10.088,0,0,1,4.34-8.7q4.34-3.11,12.263-3.109c.46,0,.919.01,1.383.031s.919.053,1.381.094a5.838,5.838,0,0,0-2.043-4.176,8.109,8.109,0,0,0-5.063-1.349,20.085,20.085,0,0,0-9.306,2.447V15.762a23.547,23.547,0,0,1,10.88-2.574q6.978,0,10.784,3.705t3.8,10.614V46.786h-7.8l-.5-3.452a9.649,9.649,0,0,1-3.93,3.138,12.955,12.955,0,0,1-5.44,1.131A11.25,11.25,0,0,1,297.132,44.965Zm8.175-11.587a3.836,3.836,0,0,0-2.106,3.486,3.935,3.935,0,0,0,1.258,3.078,4.79,4.79,0,0,0,3.333,1.131,5.537,5.537,0,0,0,4.148-1.759,6,6,0,0,0,1.7-4.333V32.215a11.457,11.457,0,0,0-1.163-.06H311.25A11.915,11.915,0,0,0,305.307,33.378Zm-68.065,10.74q-3.018-3.486-3.02-9.265V14.006h9.559v19.28a7.862,7.862,0,0,0,1.288,4.834,4.346,4.346,0,0,0,3.678,1.7,4.666,4.666,0,0,0,3.805-1.727,7.276,7.276,0,0,0,1.413-4.743V14.006h9.558v32.78h-8.365l-.5-3.579a10.785,10.785,0,0,1-4.056,3.266A12.373,12.373,0,0,1,245.29,47.6,10.109,10.109,0,0,1,237.242,44.118Zm-80.423,0q-3.016-3.486-3.018-9.265V14.006h9.558v19.28a7.873,7.873,0,0,0,1.288,4.834,4.351,4.351,0,0,0,3.681,1.7,4.664,4.664,0,0,0,3.8-1.727,7.272,7.272,0,0,0,1.414-4.743V14.006H183.1v32.78h-8.362l-.5-3.579a10.8,10.8,0,0,1-4.056,3.266,12.4,12.4,0,0,1-5.314,1.131A10.115,10.115,0,0,1,156.819,44.118Zm-32.887.752a18.3,18.3,0,0,1-7.388-7.6A23.943,23.943,0,0,1,114,26a24.252,24.252,0,0,1,2.8-11.869,19.607,19.607,0,0,1,7.64-7.818,22,22,0,0,1,11-2.731A22.793,22.793,0,0,1,145.753,5.9V14.57a18.844,18.844,0,0,0-9.242-2.512q-5.788,0-9.089,3.613t-3.3,9.892q0,6.152,3.4,9.857a11.759,11.759,0,0,0,9.117,3.7,18.016,18.016,0,0,0,9.871-2.887v8.726a23.946,23.946,0,0,1-11.193,2.64A22.779,22.779,0,0,1,123.933,44.871Zm-42.883-.752q-3.015-3.486-3.018-9.265V14.006H87.59v19.28a7.862,7.862,0,0,0,1.288,4.834,4.352,4.352,0,0,0,3.68,1.7,4.66,4.66,0,0,0,3.8-1.727,7.267,7.267,0,0,0,1.415-4.743V14.006h9.56v32.78H98.972l-.5-3.579a10.8,10.8,0,0,1-4.056,3.266A12.378,12.378,0,0,1,89.1,47.6,10.119,10.119,0,0,1,81.049,44.118Zm-35.433.847a8.936,8.936,0,0,1-2.923-6.97,10.092,10.092,0,0,1,4.339-8.7q4.339-3.11,12.26-3.109.692,0,1.386.031c.46.022.922.053,1.382.094a5.837,5.837,0,0,0-2.044-4.176,8.1,8.1,0,0,0-5.06-1.349,20.082,20.082,0,0,0-9.3,2.447V15.762a23.536,23.536,0,0,1,10.876-2.574q6.978,0,10.784,3.705t3.805,10.614V46.786h-7.8l-.5-3.452a9.656,9.656,0,0,1-3.927,3.138A12.973,12.973,0,0,1,53.447,47.6,11.255,11.255,0,0,1,45.617,44.965Zm8.176-11.587a3.833,3.833,0,0,0-2.108,3.486,3.935,3.935,0,0,0,1.258,3.078,4.8,4.8,0,0,0,3.334,1.131,5.54,5.54,0,0,0,4.148-1.759,6,6,0,0,0,1.7-4.333V32.215a11.5,11.5,0,0,0-1.162-.06H59.734A11.9,11.9,0,0,0,53.793,33.378ZM213.662,44.432q-2.956-2.984-2.956-8.887V21.291h-5.03V14.006h5.03V5.465h9.558v8.541h6.916v7.285h-6.916V34.665a5.891,5.891,0,0,0,1.071,3.893,4.135,4.135,0,0,0,3.332,1.258,8.4,8.4,0,0,0,3.271-.629v7.348a19.875,19.875,0,0,1-5.534.88Q216.616,47.415,213.662,44.432Zm-190.272,0q-2.956-2.984-2.953-8.887V21.291H15.406V14.006h5.031V5.465h9.555v8.541h6.916v7.285H29.992V34.665a5.91,5.91,0,0,0,1.07,3.893,4.138,4.138,0,0,0,3.333,1.258,8.4,8.4,0,0,0,3.27-.629v7.348a19.865,19.865,0,0,1-5.533.88Q26.346,47.415,23.39,44.432ZM0,46.788V4.4H9.872v42.39Zm330.364,0V0h9.558V46.786Zm-58.919,0V14.006h8.362l.631,4.711a9.811,9.811,0,0,1,3.207-3.925,7.585,7.585,0,0,1,4.464-1.414,7.2,7.2,0,0,1,2.264.313v8.856a7.46,7.46,0,0,0-2.7-.438,6.036,6.036,0,0,0-4.876,2.134A8.7,8.7,0,0,0,281,30.02V46.786Zm-80.419,0V0h9.559V46.786ZM87.779,9.985,94.633,0h10.249l-8.8,9.985Z" transform="translate(0 0)" stroke="rgba(0,0,0,0)" stroke-miterlimit="10" stroke-width="1"/>
    </g>
    <path id="Caminho_6212" data-name="Caminho 6212" d="M170.964,64.179A28.729,28.729,0,0,1,160.106,52a39.99,39.99,0,0,1-3.768-17.659A38.686,38.686,0,0,1,160.4,16.191,29.377,29.377,0,0,1,171.551,4.206,30.954,30.954,0,0,1,187.646,0a30.619,30.619,0,0,1,16.485,4.4,28.718,28.718,0,0,1,10.858,12.181,39.987,39.987,0,0,1,3.768,17.657A38.67,38.67,0,0,1,214.7,52.39a29.382,29.382,0,0,1-11.152,11.984,30.95,30.95,0,0,1-16.095,4.206A30.611,30.611,0,0,1,170.964,64.179ZM176.2,18.832q-4.109,5.628-4.109,15.409T176.247,49.7a14.176,14.176,0,0,0,22.65.05q4.109-5.626,4.109-15.411T198.8,18.881a13.4,13.4,0,0,0-11.349-5.673A13.185,13.185,0,0,0,176.2,18.832ZM116.323,64.325a28.513,28.513,0,0,1-11.494-11.837,37.377,37.377,0,0,1-3.963-17.562,37.81,37.81,0,0,1,4.352-18.492A30.536,30.536,0,0,1,117.105,4.256,34.168,34.168,0,0,1,134.226,0a35.386,35.386,0,0,1,16.046,3.62v13.5a29.286,29.286,0,0,0-14.382-3.914q-9,0-14.139,5.624t-5.135,15.409q0,9.589,5.281,15.362t14.187,5.771a27.981,27.981,0,0,0,15.359-4.5v13.6a37.256,37.256,0,0,1-17.414,4.109A35.406,35.406,0,0,1,116.323,64.325Zm-65.646.147V51.264q9.981,4.7,18,4.7,5.377,0,8.167-1.859a6.06,6.06,0,0,0,2.787-5.381,5.833,5.833,0,0,0-1.123-3.568A11.418,11.418,0,0,0,74.5,42.166a66.912,66.912,0,0,0-8.364-3.327Q58.6,36.3,54.64,31.6a16.736,16.736,0,0,1-3.963-11.154q0-9.393,6.9-14.918T76.113,0a38.058,38.058,0,0,1,14.97,2.935v12.72A34.594,34.594,0,0,0,76.7,12.425q-5.088,0-7.778,1.76a5.714,5.714,0,0,0-2.69,5.089,5.652,5.652,0,0,0,2.69,4.744q2.689,1.91,10.027,4.256,8.316,2.737,12.473,7.534a17.565,17.565,0,0,1,4.16,11.936q0,9.589-6.7,15.212t-18.05,5.626A48.374,48.374,0,0,1,50.677,64.471Zm271.786,2.839-4.306-13.6H294.286l-4.207,13.6h-15.36L298,1.272h16.827l23.382,66.039ZM298,42.068H314.44l-8.219-26.317ZM227.463,67.309V1.271h15.361V54.2h26.806v13.11ZM0,67.309V1.271H42.656V13.989H14.969v13.5h22.8V40.209h-22.8V54.59H43.634V67.309Z" transform="translate(170.149 197.635)" stroke="rgba(0,0,0,0)" stroke-width="1"/>
  </g>
</svg>
