<?xml version="1.0" encoding="utf-8"?>
<!-- Generator: Adobe Illustrator 25.4.1, SVG Export Plug-In . SVG Version: 6.00 Build 0)  -->
<svg version="1.1" id="Camada_1" xmlns="http://www.w3.org/2000/svg" xmlns:xlink="http://www.w3.org/1999/xlink" x="0px" y="0px"
	 viewBox="0 0 130 130" style="enable-background:new 0 0 130 130;" xml:space="preserve">
<style type="text/css">
	.st0{clip-path:url(#SVGID_00000013901017039172079120000013402397135027499684_);}
	.st1{fill:#FFFFFF;}
</style>
<g id="Grupo_32" transform="translate(-1322 -356)">
	<g id="Grupo_27" transform="translate(1982 -3537)">
		<circle id="Elipse_3" cx="-595.7" cy="3957.5" r="64.5"/>
		<g id="Grupo_24" transform="translate(-624 3986)">
			<g>
				<defs>
					<rect id="SVGID_1_" x="-15.5" y="-39.4" width="87.6" height="22.4"/>
				</defs>
				<clipPath id="SVGID_00000078761385169002808200000003569612101887757731_">
					<use xlink:href="#SVGID_1_"  style="overflow:visible;"/>
				</clipPath>
				
					<g id="Grupo_23" transform="translate(0 0)" style="clip-path:url(#SVGID_00000078761385169002808200000003569612101887757731_);">
					<path id="Caminho_6" class="st1" d="M4.9-39.4c-9.1,0-16.7,6.5-19.6,9.2c-1,1-1.1,2.6-0.1,3.6C-11.6-23-3.9-17,4.9-17
						s16.5-6,19.7-9.6c0.9-1,0.9-2.6-0.1-3.6C21.6-33,14-39.4,4.9-39.4 M-1.2-20.1c-4.6-1.6-8.7-4.3-12.1-7.9
						c-0.2-0.2-0.2-0.6,0-0.8c3.4-3.4,7.5-6,12-7.6c0,0,0,0,0,0c-4.5,3.4-5.4,9.7-2,14.2C-2.7-21.4-2-20.7-1.2-20.1
						C-1.2-20.1-1.2-20.1-1.2-20.1 M4.9-20.1c-4.5,0-8.1-3.6-8.1-8.2c0-4.5,3.6-8.1,8.2-8.1c4.5,0,8.1,3.6,8.1,8.2
						C13-23.7,9.4-20.1,4.9-20.1C4.9-20.1,4.9-20.1,4.9-20.1 M23.1-27.9c-3.3,3.6-7.5,6.3-12.1,7.9c0,0,0,0,0,0
						c4.5-3.4,5.4-9.7,2-14.2c-0.6-0.8-1.2-1.4-2-2c0,0,0,0,0,0c4.5,1.6,8.6,4.2,12,7.6C23.3-28.5,23.3-28.2,23.1-27.9"/>
					<path id="Caminho_7" class="st1" d="M4.9-32.3c-2.3,0-4.1,1.8-4.1,4.1c0,2.3,1.8,4.1,4.1,4.1S9-26,9-28.2c0,0,0,0,0,0
						C9-30.5,7.1-32.3,4.9-32.3 M4.9-26.2c-1.1,0-2-0.9-2-2c0-1.1,0.9-2,2-2c1.1,0,2,0.9,2,2C6.9-27.1,6-26.2,4.9-26.2L4.9-26.2"/>
					<path id="Caminho_8" class="st1" d="M71.3-30.2c-2.9-2.8-10.5-9.2-19.6-9.2S35-33,32.2-30.2c-1,1-1.1,2.6-0.1,3.6
						C35.3-23,43-17,51.8-17s16.5-6,19.7-9.6C72.4-27.6,72.4-29.2,71.3-30.2 M45.6-20.1c-4.6-1.6-8.7-4.3-12.1-7.9
						c-0.2-0.2-0.2-0.6,0-0.8c3.4-3.4,7.5-6,12-7.6c0,0,0,0,0,0c-4.5,3.4-5.4,9.7-2,14.2C44.2-21.4,44.9-20.7,45.6-20.1
						C45.7-20.1,45.7-20.1,45.6-20.1 M53.4-20.2c-4.4,0.9-8.7-2-9.6-6.4c-0.9-4.4,2-8.7,6.4-9.6l0,0c4.4-0.9,8.7,2,9.6,6.4
						C60.6-25.4,57.8-21.1,53.4-20.2 M70-28c-3.3,3.6-7.5,6.3-12.1,7.9c0,0,0,0,0,0c4.5-3.4,5.4-9.7,2-14.2c-0.6-0.8-1.2-1.4-2-2
						c0,0,0,0,0,0c4.5,1.6,8.6,4.2,12,7.6C70.1-28.5,70.2-28.2,70-28"/>
					<path id="Caminho_9" class="st1" d="M51.8-32.3c-2.3,0-4.1,1.8-4.1,4.1s1.8,4.1,4.1,4.1s4.1-1.8,4.1-4.1c0,0,0,0,0,0
						C55.8-30.5,54-32.3,51.8-32.3 M51.8-26.2c-1.1,0-2-0.9-2-2c0-1.1,0.9-2,2-2c1.1,0,2,0.9,2,2C53.8-27.1,52.9-26.2,51.8-26.2
						C51.8-26.2,51.8-26.2,51.8-26.2"/>
				</g>
			</g>
		</g>
	</g>
</g>
</svg>
