<svg xmlns="http://www.w3.org/2000/svg" width="75" height="75" viewBox="0 0 75 75">
  <g id="Grupo_2471" data-name="Grupo 2471" transform="translate(-646 -727)">
    <g id="Grupo_2448" data-name="Grupo 2448" transform="translate(-439.476 508.524)">
      <g id="Grupo_2428" data-name="Grupo 2428" transform="translate(1085 218)">
        <circle id="Elipse_17" data-name="Elipse 17" cx="37.5" cy="37.5" r="37.5" transform="translate(0.476 0.476)" fill="#553178"/>
      </g>
    </g>
    <g id="ORIENTAÇÃO_DE_SCROLL" data-name="ORIENTAÇÃO DE SCROLL" transform="translate(670.396 735.385)">
      <g id="noun_mouse_scroll_down_512238" data-name="noun_mouse scroll down_512238">
        <g id="Grupo_1386" data-name="Grupo 1386">
          <g id="Grupo_1385" data-name="Grupo 1385">
            <path id="Caminho_310" data-name="Caminho 310" d="M30.383,14.107h0V29.588a10.721,10.721,0,1,0,21.443,0V14.107a10.721,10.721,0,1,0-21.443,0Zm-2.383,0a13.1,13.1,0,1,1,26.208,0V29.588a13.1,13.1,0,1,1-26.208,0V14.107Z" transform="translate(-28 -1)" fill="#efe06e" fill-rule="evenodd"/>
            <path id="Caminho_311" data-name="Caminho 311" d="M48,16.2a1.191,1.191,0,1,1,2.383,0v4.755a1.191,1.191,0,1,1-2.383,0Z" transform="translate(-36.087 -6.661)" fill="#efe06e" fill-rule="evenodd"/>
            <path id="Caminho_312" data-name="Caminho 312" d="M42.619,88.341,51.43,79.53a1.191,1.191,0,0,1,1.685,1.685l-9.653,9.653a1.191,1.191,0,0,1-1.685,0l-9.682-9.682A1.191,1.191,0,1,1,33.779,79.5Z" transform="translate(-29.515 -32.602)" fill="#efe06e" fill-rule="evenodd"/>
          </g>
        </g>
      </g>
    </g>
  </g>
</svg>
